<svg xmlns="http://www.w3.org/2000/svg" viewBox="0 0 800 600" fill="none">
  <defs>
    <linearGradient id="bg" x1="0%" y1="0%" x2="100%" y2="100%">
      <stop offset="0%" stop-color="#1a0a2e"/>
      <stop offset="50%" stop-color="#2d1b4e"/>
      <stop offset="100%" stop-color="#110720"/>
    </linearGradient>
    <linearGradient id="accent" x1="0%" y1="0%" x2="100%" y2="0%">
      <stop offset="0%" stop-color="#a855f7"/>
      <stop offset="100%" stop-color="#7c3aed"/>
    </linearGradient>
    <linearGradient id="card" x1="0%" y1="0%" x2="0%" y2="100%">
      <stop offset="0%" stop-color="#ffffff" stop-opacity="0.12"/>
      <stop offset="100%" stop-color="#ffffff" stop-opacity="0.04"/>
    </linearGradient>
  </defs>
  <rect width="800" height="600" fill="url(#bg)"/>
  <circle cx="700" cy="100" r="140" fill="#7c3aed" opacity="0.12"/>
  <circle cx="80" cy="500" r="130" fill="#a855f7" opacity="0.1"/>
  <text x="60" y="72" fill="url(#accent)" font-family="system-ui,sans-serif" font-size="40" font-weight="800">Arise</text>
  <text x="60" y="108" fill="#c4b5fd" font-family="system-ui,sans-serif" font-size="16" font-weight="500">Educational Learning Platform</text>
  <rect x="50" y="140" width="700" height="420" rx="24" fill="url(#card)" stroke="#a855f7" stroke-opacity="0.35" stroke-width="1.5"/>
  <rect x="80" y="175" width="180" height="360" rx="14" fill="#ffffff08" stroke="#7c3aed" stroke-opacity="0.3"/>
  <rect x="100" y="200" width="140" height="36" rx="8" fill="url(#accent)" fill-opacity="0.7"/>
  <text x="115" y="224" fill="#ffffff" font-family="system-ui,sans-serif" font-size="13" font-weight="700">Dashboard</text>
  <rect x="100" y="250" width="140" height="28" rx="6" fill="#ffffff10"/>
  <rect x="100" y="290" width="140" height="28" rx="6" fill="#ffffff10"/>
  <rect x="100" y="330" width="140" height="28" rx="6" fill="#ffffff10"/>
  <rect x="100" y="370" width="140" height="28" rx="6" fill="#ffffff10"/>
  <rect x="100" y="410" width="140" height="28" rx="6" fill="#ffffff10"/>
  <rect x="280" y="175" width="450" height="170" rx="14" fill="#ffffff10" stroke="#a855f7" stroke-opacity="0.25"/>
  <text x="300" y="210" fill="#ede9fe" font-family="system-ui,sans-serif" font-size="15" font-weight="700">Course Progress</text>
  <rect x="300" y="230" width="400" height="12" rx="5" fill="#ffffff15"/>
  <rect x="300" y="230" width="280" height="12" rx="5" fill="url(#accent)" fill-opacity="0.8"/>
  <rect x="300" y="260" width="120" height="70" rx="10" fill="#7c3aed" fill-opacity="0.2" stroke="#a855f7" stroke-opacity="0.3"/>
  <rect x="440" y="260" width="120" height="70" rx="10" fill="#6d28d9" fill-opacity="0.2" stroke="#8b5cf6" stroke-opacity="0.3"/>
  <rect x="580" y="260" width="120" height="70" rx="10" fill="#7c3aed" fill-opacity="0.2" stroke="#a855f7" stroke-opacity="0.3"/>
  <text x="320" y="295" fill="#c4b5fd" font-family="system-ui,sans-serif" font-size="11" font-weight="600">Math</text>
  <text x="460" y="295" fill="#c4b5fd" font-family="system-ui,sans-serif" font-size="11" font-weight="600">Science</text>
  <text x="595" y="295" fill="#c4b5fd" font-family="system-ui,sans-serif" font-size="11" font-weight="600">Coding</text>
  <rect x="280" y="365" width="210" height="170" rx="14" fill="#ffffff08" stroke="#7c3aed" stroke-opacity="0.25"/>
  <text x="300" y="400" fill="#ede9fe" font-family="system-ui,sans-serif" font-size="13" font-weight="700">Live Classes</text>
  <circle cx="385" cy="460" r="35" fill="url(#accent)" fill-opacity="0.35"/>
  <rect x="310" y="505" width="150" height="8" rx="3" fill="#ffffff20"/>
  <rect x="510" y="365" width="220" height="170" rx="14" fill="#ffffff08" stroke="#7c3aed" stroke-opacity="0.25"/>
  <text x="530" y="400" fill="#ede9fe" font-family="system-ui,sans-serif" font-size="13" font-weight="700">Assignments</text>
  <rect x="530" y="420" width="180" height="10" rx="4" fill="#a855f7" fill-opacity="0.5"/>
  <rect x="530" y="440" width="140" height="10" rx="4" fill="#7c3aed" fill-opacity="0.4"/>
  <rect x="530" y="460" width="160" height="10" rx="4" fill="#ffffff20"/>
  <rect x="530" y="480" width="100" height="10" rx="4" fill="#ffffff15"/>
  <path d="M60 130 L80 115 L100 130" stroke="#a855f7" stroke-width="2" fill="none" stroke-linecap="round"/>
</svg>
