<svg xmlns="http://www.w3.org/2000/svg" viewBox="0 0 800 600" fill="none">
  <defs>
    <linearGradient id="bg" x1="0%" y1="0%" x2="100%" y2="100%">
      <stop offset="0%" stop-color="#1a0a2e"/>
      <stop offset="50%" stop-color="#2d1b4e"/>
      <stop offset="100%" stop-color="#110720"/>
    </linearGradient>
    <linearGradient id="accent" x1="0%" y1="0%" x2="100%" y2="0%">
      <stop offset="0%" stop-color="#a855f7"/>
      <stop offset="100%" stop-color="#7c3aed"/>
    </linearGradient>
    <linearGradient id="card" x1="0%" y1="0%" x2="0%" y2="100%">
      <stop offset="0%" stop-color="#ffffff" stop-opacity="0.12"/>
      <stop offset="100%" stop-color="#ffffff" stop-opacity="0.04"/>
    </linearGradient>
  </defs>
  <rect width="800" height="600" fill="url(#bg)"/>
  <circle cx="680" cy="520" r="180" fill="#7c3aed" opacity="0.12"/>
  <circle cx="100" cy="80" r="120" fill="#a855f7" opacity="0.15"/>
  <text x="60" y="72" fill="url(#accent)" font-family="system-ui,sans-serif" font-size="40" font-weight="800">SmartSplit</text>
  <text x="60" y="108" fill="#c4b5fd" font-family="system-ui,sans-serif" font-size="16" font-weight="500">Split Smart. Pay Easy.</text>
  <rect x="50" y="140" width="700" height="420" rx="24" fill="url(#card)" stroke="#a855f7" stroke-opacity="0.35" stroke-width="1.5"/>
  <rect x="80" y="175" width="310" height="200" rx="16" fill="#ffffff10" stroke="#a855f7" stroke-opacity="0.3"/>
  <text x="100" y="210" fill="#ede9fe" font-family="system-ui,sans-serif" font-size="15" font-weight="700">Group Expenses</text>
  <rect x="100" y="230" width="260" height="44" rx="10" fill="#7c3aed" fill-opacity="0.25" stroke="#a855f7" stroke-opacity="0.5"/>
  <rect x="115" y="245" width="90" height="14" rx="4" fill="#c4b5fd"/>
  <rect x="215" y="245" width="60" height="14" rx="4" fill="#ffffff30"/>
  <rect x="100" y="285" width="260" height="44" rx="10" fill="#6d28d9" fill-opacity="0.2" stroke="#8b5cf6" stroke-opacity="0.4"/>
  <rect x="115" y="300" width="70" height="14" rx="4" fill="#a78bfa"/>
  <rect x="195" y="300" width="80" height="14" rx="4" fill="#ffffff25"/>
  <rect x="100" y="340" width="200" height="10" rx="4" fill="#ffffff20"/>
  <rect x="420" y="175" width="300" height="340" rx="16" fill="#ffffff10" stroke="#a855f7" stroke-opacity="0.3"/>
  <text x="440" y="210" fill="#ede9fe" font-family="system-ui,sans-serif" font-size="15" font-weight="700">UPI PayNow</text>
  <rect x="440" y="235" width="260" height="220" rx="20" fill="url(#accent)" fill-opacity="0.2" stroke="url(#accent)" stroke-opacity="0.6" stroke-width="1.5"/>
  <circle cx="570" cy="330" r="55" fill="url(#accent)" fill-opacity="0.45"/>
  <text x="548" y="345" fill="#ffffff" font-family="system-ui,sans-serif" font-size="36" font-weight="800">Rs</text>
  <rect x="460" y="470" width="220" height="44" rx="22" fill="url(#accent)" fill-opacity="0.9"/>
  <text x="530" y="499" fill="#ffffff" font-family="system-ui,sans-serif" font-size="16" font-weight="700" text-anchor="middle">Pay Now</text>
  <rect x="80" y="400" width="310" height="130" rx="14" fill="#ffffff08" stroke="#7c3aed" stroke-opacity="0.25"/>
  <text x="100" y="430" fill="#c4b5fd" font-family="system-ui,sans-serif" font-size="13" font-weight="600">AI Categorization</text>
  <rect x="100" y="445" width="120" height="8" rx="3" fill="#a855f7" fill-opacity="0.7"/>
  <rect x="100" y="465" width="90" height="8" rx="3" fill="#7c3aed" fill-opacity="0.5"/>
  <rect x="100" y="485" width="150" height="8" rx="3" fill="#ffffff20"/>
</svg>
