<svg xmlns="http://www.w3.org/2000/svg" viewBox="0 0 800 600" fill="none">
  <defs>
    <linearGradient id="bg" x1="0%" y1="0%" x2="100%" y2="100%">
      <stop offset="0%" stop-color="#1a0a2e"/>
      <stop offset="50%" stop-color="#2d1b4e"/>
      <stop offset="100%" stop-color="#110720"/>
    </linearGradient>
    <linearGradient id="accent" x1="0%" y1="0%" x2="100%" y2="0%">
      <stop offset="0%" stop-color="#a855f7"/>
      <stop offset="100%" stop-color="#7c3aed"/>
    </linearGradient>
    <linearGradient id="card" x1="0%" y1="0%" x2="0%" y2="100%">
      <stop offset="0%" stop-color="#ffffff" stop-opacity="0.12"/>
      <stop offset="100%" stop-color="#ffffff" stop-opacity="0.04"/>
    </linearGradient>
  </defs>
  <rect width="800" height="600" fill="url(#bg)"/>
  <circle cx="650" cy="120" r="160" fill="#7c3aed" opacity="0.12"/>
  <circle cx="100" cy="480" r="130" fill="#a855f7" opacity="0.1"/>
  <text x="60" y="72" fill="url(#accent)" font-family="system-ui,sans-serif" font-size="40" font-weight="800">TalentLink</text>
  <text x="60" y="108" fill="#c4b5fd" font-family="system-ui,sans-serif" font-size="16" font-weight="500">Brand Influencer Platform</text>
  <rect x="50" y="140" width="700" height="420" rx="24" fill="url(#card)" stroke="#a855f7" stroke-opacity="0.35" stroke-width="1.5"/>
  <rect x="80" y="175" width="290" height="130" rx="14" fill="#ffffff10" stroke="#a855f7" stroke-opacity="0.3"/>
  <circle cx="140" cy="235" r="32" fill="url(#accent)" fill-opacity="0.5"/>
  <rect x="190" y="210" width="150" height="14" rx="4" fill="#c4b5fd"/>
  <rect x="190" y="235" width="100" height="10" rx="3" fill="#ffffff25"/>
  <rect x="190" y="255" width="120" height="10" rx="3" fill="#ffffff20"/>
  <rect x="400" y="175" width="320" height="130" rx="14" fill="#ffffff10" stroke="#8b5cf6" stroke-opacity="0.3"/>
  <circle cx="460" cy="235" r="32" fill="#6d28d9" fill-opacity="0.5"/>
  <rect x="510" y="210" width="150" height="14" rx="4" fill="#c4b5fd"/>
  <rect x="510" y="235" width="100" height="10" rx="3" fill="#ffffff25"/>
  <path d="M370 235 L400 235" stroke="url(#accent)" stroke-width="2" stroke-dasharray="6 4"/>
  <circle cx="385" cy="235" r="6" fill="#a855f7"/>
  <rect x="80" y="330" width="640" height="190" rx="14" fill="#ffffff08" stroke="#7c3aed" stroke-opacity="0.25"/>
  <text x="100" y="365" fill="#ede9fe" font-family="system-ui,sans-serif" font-size="14" font-weight="700">Campaign Analytics</text>
  <rect x="100" y="385" width="80" height="60" rx="8" fill="#7c3aed" fill-opacity="0.25"/>
  <rect x="200" y="385" width="80" height="60" rx="8" fill="#a855f7" fill-opacity="0.2"/>
  <rect x="300" y="385" width="80" height="60" rx="8" fill="#6d28d9" fill-opacity="0.25"/>
  <rect x="400" y="385" width="80" height="60" rx="8" fill="#7c3aed" fill-opacity="0.2"/>
  <rect x="500" y="385" width="80" height="60" rx="8" fill="#a855f7" fill-opacity="0.25"/>
  <rect x="100" y="465" width="200" height="10" rx="4" fill="#a855f7" fill-opacity="0.5"/>
  <rect x="320" y="465" width="280" height="10" rx="4" fill="#ffffff20"/>
</svg>
